<svg id="Layer_1" enable-background="new 0 0 512 512" height="512" viewBox="0 0 512 512" width="512" xmlns="http://www.w3.org/2000/svg"><g><g><path d="m497.003 511.999c-3.468 0-6.898-1.201-9.655-3.518l-55.289-46.48h-192.633c-24.813 0-45-20.187-45-45v-203.001c0-24.813 20.187-45 45-45h227.574c24.813 0 45 20.187 45 45v282.999c0 5.832-3.381 11.135-8.667 13.598-2.021.941-4.184 1.402-6.33 1.402z" fill="#7dd5f4"/></g><path d="m467 169h-113.787v293h78.846l55.289 46.48c2.757 2.317 6.188 3.519 9.655 3.518 2.146 0 4.309-.461 6.33-1.402 5.286-2.462 8.667-7.766 8.667-13.598v-282.998c0-24.812-20.187-45-45-45z" fill="#4793ff"/><g><g><path d="m15.068 401.117c-4.259 0-8.385-1.817-11.27-5.102-3.687-4.197-4.735-10.095-2.722-15.305l30.589-79.155c-20.743-31.703-31.665-68.367-31.665-106.554 0-107.523 87.477-195 195-195s195 87.477 195 195-87.477 195-195 195c-25.495 0-50.232-4.838-73.614-14.39l-102.761 25.077c-1.18.288-2.374.429-3.557.429z" fill="#ff415b"/></g></g><g><g><path d="m195 282.501c-14.032 0-37.135-17.932-53.808-35.704-10.7-11.405-35.586-40.942-35.586-68.824 0-27.911 22.707-50.617 50.617-50.617 15.292 0 29.308 6.693 38.777 18.034 9.47-11.341 23.486-18.034 38.777-18.034 27.91 0 50.617 22.707 50.617 50.617 0 29.27-22.344 56.771-35.662 70.56-15.802 16.36-39.357 33.968-53.732 33.968z" fill="#f9bbde"/></g></g><path d="m195 .001c-.213 0-.425.007-.638.008v389.984c.213.001.425.008.638.008 107.523 0 195-87.477 195-195s-87.477-195-195-195z" fill="#e50058"/><path d="m233.777 127.356c-15.292 0-29.308 6.693-38.777 18.034-.207-.248-.427-.48-.638-.723v137.81c.213.008.43.025.638.025 14.375 0 37.93-17.608 53.733-33.968 13.318-13.788 35.662-41.29 35.662-70.56 0-27.911-22.708-50.618-50.618-50.618z" fill="#fe7cb8"/></g></svg>